<!DOCTYPE svg PUBLIC "-//W3C//DTD SVG 1.1//EN" "http://www.w3.org/Graphics/SVG/1.1/DTD/svg11.dtd">
<!-- Uploaded to: SVG Repo, www.svgrepo.com, Transformed by: SVG Repo Mixer Tools -->
<svg width="126px" height="126px" viewBox="0 0 512 512" id="icons" xmlns="http://www.w3.org/2000/svg" fill="#ffffff" stroke="#ffffff">
<g id="SVGRepo_bgCarrier" stroke-width="0"/>
<g id="SVGRepo_tracerCarrier" stroke-linecap="round" stroke-linejoin="round"/>
<g id="SVGRepo_iconCarrier">
<path d="M35.42,188.21,243.17,457.67a16.17,16.17,0,0,0,25.66,0L476.58,188.21a16.52,16.52,0,0,0,.95-18.75L407.06,55.71A16.22,16.22,0,0,0,393.27,48H118.73a16.22,16.22,0,0,0-13.79,7.71L34.47,169.46A16.52,16.52,0,0,0,35.42,188.21Z" fill="none" stroke="#fffff" stroke-linecap="round" stroke-linejoin="round" stroke-width="32"/>
<line x1="48" y1="176" x2="464" y2="176" fill="none" stroke="#fffff" stroke-linecap="round" stroke-linejoin="round" stroke-width="32"/>
<polyline points="400 64 352 176 256 48" fill="none" stroke="#fffff" stroke-linecap="round" stroke-linejoin="round" stroke-width="32"/>
<polyline points="112 64 160 176 256 48" fill="none" stroke="#fffff" stroke-linecap="round" stroke-linejoin="round" stroke-width="32"/>
<line x1="256" y1="448" x2="160" y2="176" fill="none" stroke="#fffff" stroke-linecap="round" stroke-linejoin="round" stroke-width="32"/>
<line x1="256" y1="448" x2="352" y2="176" fill="none" stroke="#fffff" stroke-linecap="round" stroke-linejoin="round" stroke-width="32"/>
</g>
</svg>